<?xml version="1.0" encoding="iso-8859-1"?>
<!-- Uploaded to: SVG Repo, www.svgrepo.com, Generator: SVG Repo Mixer Tools -->
<svg fill="#000000" height="800px" width="800px" version="1.1" id="Layer_1" xmlns="http://www.w3.org/2000/svg" xmlns:xlink="http://www.w3.org/1999/xlink" 
	 viewBox="0 0 512 512" xml:space="preserve">
<g transform="translate(0 -1)">
	<g>
		<g>
			<path d="M475.582,49.934L384,141.516v-33.83c0-35.355-28.645-64-64-64H64c-35.355,0-64,28.645-64,64v170.667
				c0,35.355,28.645,64,64,64h93.482l-48.563,97.126c-5.269,10.538-0.998,23.353,9.541,28.622s23.353,0.998,28.622-9.541
				L192,368.722l44.919,89.838c5.269,10.538,18.083,14.81,28.622,9.541s14.81-18.083,9.541-28.622l-48.563-97.126H320
				c35.355,0,64-28.645,64-64v-33.83l91.582,91.582C489.021,349.543,512,340.025,512,321.019v-256
				C512,46.013,489.021,36.495,475.582,49.934z M341.333,278.352c0,11.791-9.542,21.333-21.333,21.333H64
				c-11.791,0-21.333-9.542-21.333-21.333V107.686c0-11.791,9.542-21.333,21.333-21.333h256c11.791,0,21.333,9.542,21.333,21.333
				V278.352z M469.333,269.516l-76.497-76.497l76.497-76.497V269.516z"/>
			<path d="M128,107.686c-35.355,0-64,28.645-64,64s28.645,64,64,64s64-28.645,64-64S163.355,107.686,128,107.686z M128,193.019
				c-11.791,0-21.333-9.542-21.333-21.333s9.542-21.333,21.333-21.333s21.333,9.542,21.333,21.333S139.791,193.019,128,193.019z"/>
		</g>
	</g>
</g>
</svg>